<svg width="200" height="200" viewBox="0 0 200 200" xmlns="http://www.w3.org/2000/svg">
  <!-- Fondo beige claro -->
  <rect width="200" height="200" fill="#f5f5dc"/>
  
  <!-- Círculo principal -->
  <circle cx="100" cy="80" r="70" fill="#4CAF50" stroke="#2E7D32" stroke-width="3"/>
  
  <!-- Persona con cabello largo marrón -->
  <!-- Cabeza -->
  <ellipse cx="100" cy="70" rx="18" ry="22" fill="#ffdbac"/>
  
  <!-- Cabello largo marrón -->
  <path d="M82 50 Q100 35 118 50 Q115 65 110 70 Q90 70 85 65 Q82 60 82 50" fill="#8B4513"/>
  <path d="M85 65 Q90 70 95 75 Q105 75 110 70 Q115 65 118 50" fill="#8B4513"/>
  
  <!-- Gafas redondas -->
  <ellipse cx="92" cy="72" rx="7" ry="8" fill="none" stroke="#000" stroke-width="2"/>
  <ellipse cx="108" cy="72" rx="7" ry="8" fill="none" stroke="#000" stroke-width="2"/>
  <line x1="99" y1="72" x2="101" y2="72" stroke="#000" stroke-width="2"/>
  
  <!-- Ojos -->
  <ellipse cx="90" cy="72" rx="2" ry="3" fill="#000"/>
  <ellipse cx="110" cy="72" rx="2" ry="3" fill="#000"/>
  
  <!-- Boca sonriente -->
  <path d="M95 80 Q100 85 105 80" fill="none" stroke="#000" stroke-width="2"/>
  
  <!-- Camiseta verde -->
  <rect x="82" y="88" width="36" height="30" rx="8" fill="#4CAF50"/>
  
  <!-- Brazos -->
  <ellipse cx="82" cy="100" rx="10" ry="15" fill="#ffdbac"/>
  <ellipse cx="118" cy="100" rx="10" ry="15" fill="#ffdbac"/>
  
  <!-- Mochila -->
  <rect x="85" y="95" width="30" height="25" rx="5" fill="#8B4513"/>
  <rect x="87" y="97" width="26" height="21" rx="3" fill="#A0522D"/>
  
  <!-- Teléfono -->
  <rect x="125" y="85" width="15" height="25" rx="3" fill="#333"/>
  <rect x="126" y="86" width="13" height="23" rx="2" fill="#000"/>
  <rect x="128" y="88" width="9" height="19" rx="1" fill="#222"/>
  
  <!-- Burbujas de conversación -->
  <ellipse cx="140" cy="75" rx="8" ry="6" fill="white" stroke="#ccc" stroke-width="1"/>
  <ellipse cx="145" cy="70" rx="6" ry="4" fill="white" stroke="#ccc" stroke-width="1"/>
  <ellipse cx="148" cy="65" rx="4" ry="3" fill="white" stroke="#ccc" stroke-width="1"/>
  
  <!-- Texto "STRESS DETECTOR" -->
  <text x="100" y="160" text-anchor="middle" font-family="Arial, sans-serif" font-size="16" font-weight="bold" fill="#2E7D32">
    STRESS DETECTOR
  </text>
</svg>
